<?xml version="1.0" encoding="UTF-8"?>
<!-- Fuelix isotipo — symbol only, colour treatment for light surfaces.
     Source: brand manual "DISTINTIVO". Dark counterpart: isotipo-dark.svg (same geometry, scaled). -->
<svg id="Capa_2" data-name="Capa 2" xmlns="http://www.w3.org/2000/svg" viewBox="0 0 237.64 361.49">
  <defs>
    <style>
      .cls-1 {
        fill: #feb81c;
      }

      .cls-2 {
        fill: #00205c;
      }
    </style>
  </defs>
  <g id="Capa_1-2" data-name="Capa 1">
    <g>
      <path class="cls-2" d="M37.29,74.27l36.98-36.98c7.07-7.1,16.72-11.06,26.73-11.06h17.8V0h-28.65c-10.04,0-19.66,3.99-26.75,11.08l-15.13,15.15-22.06,22.04-15.15,15.15C3.97,70.52,0,80.14,0,90.15v227.68c0,24.1,19.53,43.66,43.66,43.66h75.15v-26.21h-4.3c-7.78,0-14.11-6.32-14.11-14.11v-143.66c0-8.08-6.53-14.61-14.61-14.61h-45.49c-7.78,0-14.09-6.32-14.09-14.11v-47.77c0-10.04,3.99-19.66,11.08-26.75Z"/>
      <path class="cls-1" d="M193.98,0h-75.17v26.23h4.32c7.78,0,14.09,6.3,14.09,14.09v143.68c0,8.06,6.55,14.61,14.61,14.61h45.49c7.78,0,14.11,6.3,14.11,14.09v44.91c0,10.04-3.99,19.66-11.08,26.75l-39.84,39.84c-7.1,7.1-16.72,11.08-26.75,11.08h-14.94v26.21h25.81c10.04,0,19.66-3.99,26.75-11.08l55.18-55.18c7.1-7.1,11.08-16.72,11.08-26.75V43.66c0-24.1-19.55-43.66-43.66-43.66Z"/>
    </g>
  </g>
</svg>
